<?xml version="1.0" standalone="no"?>
<!DOCTYPE svg PUBLIC "-//W3C//DTD SVG 20010904//EN"
 "http://www.w3.org/TR/2001/REC-SVG-20010904/DTD/svg10.dtd">
<svg version="1.0" xmlns="http://www.w3.org/2000/svg"
 width="512.000000pt" height="512.000000pt" viewBox="0 0 512.000000 512.000000"
 preserveAspectRatio="xMidYMid meet">
<metadata>
Created by potrace 1.14, written by Peter Selinger 2001-2017
</metadata>
<g transform="translate(0.000000,512.000000) scale(0.100000,-0.100000)"
fill="#000000" stroke="none">
<path d="M2297 5110 c-500 -57 -951 -243 -1337 -550 -107 -85 -269 -240 -287
-273 -13 -26 -14 -37 -4 -64 12 -31 10 -35 -31 -86 -41 -51 -45 -54 -81 -49
-47 6 -59 -4 -132 -114 -213 -320 -346 -673 -407 -1079 -17 -118 -18 -550 0
-665 50 -331 133 -591 271 -856 356 -678 1010 -1173 1751 -1323 195 -39 272
-46 520 -46 256 0 331 7 540 51 978 206 1751 980 1965 1969 72 333 72 731 0
1075 -153 730 -648 1379 -1319 1731 -258 134 -505 215 -820 266 -108 17 -516
26 -629 13z m536 -1484 c111 -28 255 -93 347 -156 82 -56 198 -167 261 -249
69 -92 154 -267 186 -386 24 -90 27 -117 27 -275 0 -158 -3 -185 -27 -275 -16
-58 -53 -153 -88 -224 l-61 -125 16 -34 c18 -37 17 -39 -31 -99 -29 -36 -37
-41 -53 -33 -37 20 -69 11 -119 -34 -121 -108 -293 -199 -456 -243 -90 -24
-117 -27 -275 -27 -158 0 -185 3 -275 27 -119 32 -294 117 -386 186 -82 63
-193 179 -249 261 -62 91 -127 235 -157 347 -24 88 -27 115 -27 273 0 158 3
185 27 273 82 305 284 560 557 701 182 95 327 127 540 122 114 -3 166 -9 243
-30z"/>
<path d="M2425 3253 c-56 -12 -172 -58 -228 -90 -79 -47 -193 -160 -240 -240
-19 -34 -48 -95 -64 -135 -26 -69 -27 -82 -27 -228 0 -146 1 -159 27 -228 44
-114 93 -190 177 -273 61 -61 96 -86 171 -123 123 -60 189 -76 319 -76 196 0
357 66 495 205 139 138 205 299 205 495 0 129 -16 196 -74 315 -91 184 -255
316 -462 370 -54 14 -247 19 -299 8z m311 -177 c90 -33 152 -72 214 -135 208
-212 205 -556 -5 -766 -104 -104 -234 -158 -380 -159 -266 0 -485 178 -540
439 -8 39 -15 86 -15 105 0 110 63 274 140 362 74 86 203 156 323 178 73 12
192 2 263 -24z"/>
<path d="M2495 2706 c-101 -44 -125 -178 -46 -257 65 -65 157 -65 222 0 124
124 -15 327 -176 257z"/>
</g>
</svg>
